<svg xmlns="http://www.w3.org/2000/svg" viewBox="0 0 45 52" fill="none">
  <path fill="#000" d="M17.104 46.648h-1.63v-1.029h1.63c.252 0 .457-.04.615-.123a.789.789 0 0 0 .347-.351c.073-.15.11-.318.11-.506 0-.19-.037-.367-.11-.531a.887.887 0 0 0-.347-.396c-.159-.1-.364-.15-.616-.15H15.93v5.367h-1.318V42.53h2.492c.5 0 .93.091 1.287.273.36.178.636.426.826.742.19.317.286.678.286 1.086 0 .413-.095.77-.286 1.072-.19.302-.465.535-.826.699-.357.164-.786.246-1.287.246Zm5.18-3.024-1.74 5.305h-1.401l2.377-6.399h.892l-.127 1.094Zm1.447 5.305-1.745-5.305-.14-1.094h.9l2.39 6.399h-1.405Zm-.08-2.382v1.033h-3.379v-1.033h3.38Zm4.57.1h-1.63V45.62h1.63c.253 0 .458-.041.616-.123a.79.79 0 0 0 .347-.352c.073-.15.11-.318.11-.506 0-.19-.037-.367-.11-.531a.888.888 0 0 0-.347-.396c-.158-.1-.363-.15-.615-.15h-1.174v5.367H25.73V42.53h2.492c.5 0 .93.091 1.287.273.36.178.636.426.826.742.19.317.286.678.286 1.086 0 .413-.095.77-.286 1.072-.19.302-.465.535-.826.699-.357.164-.786.246-1.287.246ZM23.195 30.681H16.8v-1.256l3.019-3.187c.414-.448.72-.84.916-1.174.201-.335.301-.652.301-.952 0-.41-.104-.732-.314-.965-.209-.237-.508-.356-.897-.356-.418 0-.75.144-.993.432-.24.283-.359.658-.359 1.123h-1.859c0-.562.135-1.077.404-1.542.274-.465.658-.83 1.154-1.092.495-.266 1.057-.4 1.685-.4.962 0 1.707.229 2.237.686.534.457.801 1.102.801 1.936 0 .457-.12.922-.359 1.396-.24.474-.65 1.027-1.23 1.657l-2.122 2.215h4.012v1.48ZM28.835 30.681h-1.852v-7.07l-2.211.678v-1.491l3.864-1.371h.199v9.254Z"/>
  <path fill="#000" d="M7.679 34.03c-.28-.473-.123-1.315.402-2.227l5.197-9.017 1.225.701-1.102-4.771-4.69 1.42 1.278.737-5.198 9.018c-1.225 2.14-1.382 4.333-.402 6.035.98 1.701 2.957 2.666 5.407 2.666h10.412v-3.807H9.796c-1.05.018-1.837-.28-2.117-.754ZM22.5 8.313c.543 0 1.19.544 1.715 1.456l5.215 9.07 3.29-1.912-5.215-9.07c-1.225-2.14-3.063-3.368-5.005-3.368-1.942 0-3.78 1.228-5.005 3.368l-5.214 9.07 3.29 1.912 5.214-9.07c.525-.912 1.173-1.456 1.715-1.456Zm10.36 12.684 1.102-4.771-5.792 3.35 4.69 1.421Zm7.349 8.912-5.198-9.017-3.29 1.912 5.198 9.017c.525.913.682 1.737.402 2.228-.28.474-1.067.772-2.117.772H24.792v-1.438l-3.57 3.35 3.57 3.351v-1.456h10.412c2.467 0 4.427-.965 5.407-2.666.98-1.72.823-3.913-.402-6.053Z"/>
</svg>
