<svg xmlns="http://www.w3.org/2000/svg" viewBox="0 0 45 52" fill="none">
  <path fill="#000" d="M17.104 46.648h-1.63v-1.029h1.63c.252 0 .457-.04.615-.123a.789.789 0 0 0 .347-.351c.073-.15.11-.318.11-.506 0-.19-.037-.367-.11-.531a.887.887 0 0 0-.347-.396c-.159-.1-.364-.15-.616-.15H15.93v5.367h-1.318V42.53h2.492c.5 0 .93.091 1.287.273.36.178.636.426.826.742.19.317.286.678.286 1.086 0 .413-.095.77-.286 1.072-.19.302-.465.535-.826.699-.357.164-.786.246-1.287.246Zm5.18-3.024-1.74 5.305h-1.401l2.377-6.399h.892l-.127 1.094Zm1.447 5.305-1.745-5.305-.14-1.094h.9l2.39 6.399h-1.405Zm-.08-2.382v1.033h-3.379v-1.033h3.38Zm4.57.1h-1.63V45.62h1.63c.253 0 .458-.041.616-.123a.79.79 0 0 0 .347-.352c.073-.15.11-.318.11-.506 0-.19-.037-.367-.11-.531a.888.888 0 0 0-.347-.396c-.158-.1-.363-.15-.615-.15h-1.174v5.367H25.73V42.53h2.492c.5 0 .93.091 1.287.273.36.178.636.426.826.742.19.317.286.678.286 1.086 0 .413-.095.77-.286 1.072-.19.302-.465.535-.826.699-.357.164-.786.246-1.287.246ZM22.305 30.618h-6.396v-1.257l3.018-3.186c.415-.449.72-.84.917-1.175.2-.334.3-.651.3-.952 0-.41-.104-.732-.313-.965-.21-.237-.509-.355-.897-.355-.419 0-.75.144-.994.431-.239.284-.359.659-.359 1.124h-1.858c0-.563.134-1.077.404-1.543.273-.465.658-.829 1.153-1.091.496-.267 1.058-.4 1.686-.4.961 0 1.706.228 2.236.685.534.457.801 1.103.801 1.936 0 .457-.12.923-.358 1.397-.24.474-.65 1.026-1.23 1.657l-2.122 2.215h4.012v1.479ZM29.726 26.797c0 1.278-.267 2.255-.801 2.932s-1.316 1.016-2.346 1.016c-1.017 0-1.794-.332-2.332-.997-.539-.664-.814-1.616-.827-2.856V25.19c0-1.291.269-2.27.807-2.94.543-.668 1.323-1.002 2.34-1.002 1.016 0 1.794.332 2.332.996.538.66.814 1.61.827 2.85v1.702Zm-1.852-1.867c0-.765-.107-1.322-.32-1.669-.21-.351-.539-.527-.988-.527-.435 0-.758.167-.967.502-.205.33-.314.848-.327 1.555v2.247c0 .753.102 1.314.308 1.682.209.364.542.546 1 .546.452 0 .779-.176.98-.527.2-.351.305-.889.314-1.612V24.93Z"/>
  <path fill="#000" d="M7.679 34.03c-.28-.473-.123-1.315.402-2.227l5.197-9.017 1.225.701-1.102-4.771-4.69 1.42 1.278.737-5.198 9.018c-1.225 2.14-1.382 4.333-.402 6.035.98 1.701 2.957 2.666 5.407 2.666h10.412v-3.807H9.796c-1.05.018-1.837-.28-2.117-.754ZM22.5 8.314c.543 0 1.19.543 1.715 1.456l5.215 9.07 3.29-1.913-5.215-9.07c-1.225-2.14-3.063-3.368-5.005-3.368-1.942 0-3.78 1.228-5.005 3.368l-5.214 9.07 3.29 1.913 5.214-9.07c.525-.913 1.173-1.456 1.715-1.456Zm10.36 12.683 1.102-4.771-5.792 3.35 4.69 1.421Zm7.349 8.912-5.198-9.017-3.29 1.912 5.198 9.017c.525.913.682 1.737.402 2.228-.28.474-1.067.772-2.117.772H24.792v-1.438l-3.57 3.35 3.57 3.351v-1.456h10.412c2.467 0 4.427-.965 5.407-2.666.98-1.72.823-3.913-.402-6.053Z"/>
</svg>
